M48
; DRILL file {KiCad 5.1.8-db9833491~88~ubuntu20.10.1} date Mon Dec 14 22:47:44 2020
; FORMAT={-:-/ absolute / inch / decimal}
; #@! TF.CreationDate,2020-12-14T22:47:44+07:00
; #@! TF.GenerationSoftware,Kicad,Pcbnew,5.1.8-db9833491~88~ubuntu20.10.1
; #@! TF.FileFunction,Plated,1,2,PTH
FMAT,2
INCH
T1C0.0256
T2C0.0394
%
G90
G05
T1
X5.648Y-3.7236
X5.648Y-3.8024
X5.648Y-3.8811
X5.648Y-3.9598
X5.648Y-4.0386
X5.648Y-4.1173
X5.648Y-4.1961
X5.648Y-4.2748
X5.7264Y-4.3142
X5.8051Y-4.3142
X5.8839Y-4.3142
X5.9626Y-4.3142
X6.0413Y-4.3142
X6.1201Y-4.3142
X6.1992Y-3.7236
X6.1992Y-3.8024
X6.1992Y-3.8811
X6.1992Y-3.9598
X6.1992Y-4.0386
X6.1992Y-4.1173
X6.1992Y-4.1961
X6.1992Y-4.2748
T2
X5.675Y-4.45
X5.775Y-4.45
X5.875Y-4.45
X5.975Y-4.45
X6.075Y-4.45
X6.175Y-4.45
X5.475Y-3.6
X5.475Y-3.7
X5.475Y-3.8
X5.475Y-3.9
X5.475Y-4.0
X5.475Y-4.1
X5.475Y-4.2
X5.475Y-4.3
X6.375Y-3.6
X6.375Y-3.7
X6.375Y-3.8
X6.375Y-3.9
X6.375Y-4.0
X6.375Y-4.1
X6.375Y-4.2
X6.375Y-4.3
T0
M30
